<svg xmlns="http://www.w3.org/2000/svg" viewBox="0 0 32 32">
  <path d="M15.5 4C11.364 4 8 8.548625 8 14.140625C8 16.865108 8.8086552 19.327357 10.107422 21.150391 A 1.75 1.75 0 0 0 11.75 23.5 A 1.75 1.75 0 1 0 11.75 20 A 1.75 1.75 0 0 0 11.697266 20.001953C10.653587 18.520785 10 16.443926 10 14.140625C10 9.651625 12.468 6 15.5 6C17.67 6 19.545453 7.8740312 20.439453 10.582031C21.211453 10.810031 21.977609 11.098031 22.724609 11.457031C21.851609 7.1650313 18.948 4 15.5 4 z M 14.25 11.75 A 1.75 1.75 0 1 0 14.25 15.25 A 1.75 1.75 0 0 0 15.904297 14.066406C17.79992 13.840068 20.031164 14.393321 22.066406 15.644531C25.915406 18.012531 27.957391 22.245672 26.525391 24.888672C26.021391 25.817672 25.134078 26.474062 23.955078 26.789062C22.740078 27.114062 21.324766 27.050344 19.884766 26.652344C19.328766 27.185344 18.710687 27.678531 18.054688 28.144531C19.471688 28.702531 20.920156 28.998047 22.285156 28.998047C23.046156 28.998047 23.781703 28.908609 24.470703 28.724609C26.192703 28.263609 27.51025 27.26775 28.28125 25.84375C30.26825 22.17475 27.998281 16.944453 23.113281 13.939453C20.587601 12.384843 17.739937 11.736844 15.322266 12.119141 A 1.75 1.75 0 0 0 14.25 11.75 z M 6.1367188 16.138672C3.2327188 19.112672 2.1528437 22.95975 3.7148438 25.84375C4.4868438 27.26775 5.8033906 28.263609 7.5253906 28.724609C8.2143906 28.909609 8.9518906 28.998047 9.7128906 28.998047C11.788891 28.998047 14.061188 28.326547 16.117188 27.060547C18.756959 25.437163 20.622272 23.164286 21.474609 20.839844 A 1.75 1.75 0 0 0 20.75 17.5 A 1.75 1.75 0 0 0 19.451172 20.421875C18.691901 22.248213 17.154291 24.075966 15.072266 25.357422C12.720266 26.803422 10.092969 27.339016 8.0429688 26.791016C6.8639687 26.476016 5.9756563 25.818625 5.4726562 24.890625C4.5316563 23.153625 5.0975937 20.731563 6.6835938 18.601562C6.4375937 17.816562 6.2497188 16.994672 6.1367188 16.138672 z" fill="#18D26E" />
</svg>