<svg xmlns="http://www.w3.org/2000/svg" viewBox="0 0 32 32">
  <path d="M2 6L2 26L30 26L30 6 Z M 4 8L28 8L28 24L4 24 Z M 10.21875 12L10 12.6875L8.0625 18.6875L8 18.84375L8 20L10 20L10 19.125L10.03125 19L11.96875 19L12 19.125L12 20L14 20L14 18.84375L13.9375 18.6875L12 12.6875L11.78125 12 Z M 15 12L15 20L17 20L17 18C18.644531 18 20 16.644531 20 15C20 13.355469 18.644531 12 17 12 Z M 21 12L21 20L23 20L23 12 Z M 17 14C17.566406 14 18 14.433594 18 15C18 15.566406 17.566406 16 17 16 Z M 11 16.0625L11.3125 17L10.6875 17Z" fill="#18D26E" />
</svg>