<svg xmlns="http://www.w3.org/2000/svg" viewBox="0 0 32 32">
  <path d="M16 2.882813L3 9.382813L3 22.617188L16 29.117188L29 22.617188L29 9.382813 Z M 16 5.117188L27 10.617188L27 21.382813L16 26.882813L5 21.382813L5 10.617188 Z M 13 10C9.699219 10 7 12.699219 7 16C7 19.300781 9.699219 22 13 22C14.5 22 15.902344 21.398438 16.902344 20.5L15.199219 19.300781C14.597656 19.699219 13.800781 20 13 20C10.800781 20 9 18.199219 9 16C9 13.800781 10.800781 12 13 12C13.800781 12 14.597656 12.300781 15.199219 12.699219L16.902344 11.5C15.902344 10.601563 14.5 10 13 10 Z M 18 12L18 13L17 13L17 15L18 15L18 17L17 17L17 19L18 19L18 20L20 20L20 19L22 19L22 20L24 20L24 19L25 19L25 17L24 17L24 15L25 15L25 13L24 13L24 12L22 12L22 13L20 13L20 12 Z M 20 15L22 15L22 17L20 17Z" fill="#18D26E" />
</svg>