<svg xmlns="http://www.w3.org/2000/svg" viewBox="0 0 32 32">
  <path d="M8.21875 5L8.0625 5.8125L7.5625 8.6875L7.34375 9.875L21.46875 9.875L21.15625 11.6875L7.03125 11.6875L6.875 12.5L6.375 15.375L6.15625 16.53125L20.28125 16.53125L19.5625 20.59375L14.34375 23L10.25 20.75L10.46875 19.53125L10.6875 18.375L5.8125 18.375L5.6875 19.1875L5 23L4.84375 23.75L5.53125 24.09375L13.34375 27.90625L13.75 28.09375L14.15625 27.9375L23.3125 24.09375L23.8125 23.90625L23.9375 23.34375L27 6.1875L27.21875 5 Z M 9.875 7L24.8125 7L22.0625 22.46875L13.78125 25.875L7.09375 22.625L7.5 20.375L8.28125 20.375L8.03125 21.8125L8.65625 22.15625L13.8125 25L14.25 25.25L14.71875 25.03125L20.875 22.1875L21.34375 21.96875L21.4375 21.4375L22.46875 15.71875L22.6875 14.53125L8.5625 14.53125L8.6875 13.6875L22.84375 13.6875L22.96875 12.84375L23.65625 9.03125L23.875 7.875L9.75 7.875Z" fill="#18D26E" />
</svg>