<svg xmlns="http://www.w3.org/2000/svg" viewBox="0 0 32 32">
  <path d="M9 4C7.355469 4 6 5.355469 6 7L6 25C6 26.644531 7.355469 28 9 28L23 28C24.644531 28 26 26.644531 26 25L26 7C26 5.355469 24.644531 4 23 4 Z M 9 6L23 6C23.5625 6 24 6.4375 24 7L24 25C24 25.5625 23.5625 26 23 26L9 26C8.4375 26 8 25.5625 8 25L8 7C8 6.4375 8.4375 6 9 6 Z M 13 8L11 8.03125C11 8.03125 10.984375 17.039063 11 17C18.648438 13.40625 19 15.8125 19 15.8125L19 24L21 24L21 15.84375C21 10.816406 13 14 13 14 Z M 19.28125 8C19.28125 8 17.945313 9.84375 17 11L19.625 11C21.050781 9.15625 22 8 22 8 Z M 11 19L11 23.96875L14 21.5Z" fill="#18D26E" />
</svg>