<svg xmlns="http://www.w3.org/2000/svg" viewBox="0 0 27.172 28.828">
  <path d="M13.585938 0L12.878906 0.70703125L0.5859375 13C-0.18646011 13.772631 -0.18646011 15.055494 0.5859375 15.828125L13.585938 28.828125L14.292969 28.121094L26.585938 15.828125C27.358335 15.055494 27.358335 13.772631 26.585938 13L13.585938 0 z M 13.638672 2.8808594L25.171875 14.414062L16.326172 23.259766C16.302757 22.660747 16.201061 22.095371 16.035156 21.597656C15.739458 20.710561 15.298665 19.984718 14.933594 19.480469L20 14.414062L14.292969 8.7070312C14.292969 8.7070312 13.450829 7.844674 13.035156 6.5976562C12.680798 5.534581 12.572787 4.311202 13.638672 2.8808594 z M 10.845703 5.5683594C10.869118 6.1673784 10.970814 6.7327539 11.136719 7.2304688C11.432417 8.1175643 11.87321 8.8434066 12.238281 9.3476562L7.171875 14.414062L7.8789062 15.121094L12.878906 20.121094C12.878906 20.121094 13.721046 20.983451 14.136719 22.230469C14.491077 23.293544 14.599088 24.516923 13.533203 25.947266L2 14.414062L10.845703 5.5683594 z M 13.585938 10.828125L17.171875 14.414062L13.585938 18L10 14.414062L13.585938 10.828125 z" fill="#18D26E" />
</svg>