<svg xmlns="http://www.w3.org/2000/svg" viewBox="0 0 32 32">
  <path d="M5 5L5 27L27 27L27 5L5 5 z M 7 7L25 7L25 25L7 25L7 7 z M 20.244141 15C18.819141 15 17.898438 15.912141 17.898438 17.119141C17.898437 18.430141 18.667172 19.056781 19.826172 19.550781L20.226562 19.722656C20.958563 20.045656 21.394531 20.234156 21.394531 20.785156C21.394531 21.250156 20.967734 21.583984 20.302734 21.583984C19.514734 21.583984 19.066609 21.166469 18.724609 20.605469L17.414062 21.355469C17.879062 22.286469 18.847844 23 20.339844 23C21.859844 23 23 22.211578 23 20.767578C23 19.418578 22.230328 18.819234 20.861328 18.240234L20.462891 18.068359C19.769891 17.764359 19.474609 17.564844 19.474609 17.089844C19.474609 16.699844 19.769141 16.396484 20.244141 16.396484C20.710141 16.396484 21.003297 16.595844 21.279297 17.089844L22.535156 16.283203C22.003156 15.352203 21.270141 15 20.244141 15 z M 14.394531 15.095703L14.394531 20.558594C14.394531 21.356594 14.052297 21.564453 13.529297 21.564453C12.978297 21.564453 12.741141 21.185281 12.494141 20.738281L11.183594 21.527344C11.563594 22.335344 12.312703 23 13.595703 23C15.020703 23 16 22.239172 16 20.576172L16 15.095703L14.394531 15.095703 z" fill="#18D26E" />
</svg>