<svg xmlns="http://www.w3.org/2000/svg" viewBox="0 0 32 32">
  <path d="M1.0800781 9L0.080078125 21L2.0878906 21L2.6445312 14.304688L5.3222656 21L6.6777344 21L9.3554688 14.304688L9.9121094 21L11.919922 21L10.919922 9L9.3222656 9L6 17.308594L2.6777344 9L1.0800781 9 z M 14 9L14 21L16 21C19.301625 21 22 18.301625 22 15C22 11.698375 19.301625 9 16 9L14 9 z M 24 9L24 14L24 16L24 21.011719L28.494141 21.011719C30.418603 21.011719 32 19.430322 32 17.505859C32 16.235984 31.27724 15.164205 30.255859 14.548828C30.692123 13.965017 31 13.278546 31 12.5C31 10.578812 29.421188 9 27.5 9L24 9 z M 16 11C18.220375 11 20 12.779625 20 15C20 17.220375 18.220375 19 16 19L16 11 z M 26 11L27.5 11C28.340812 11 29 11.659188 29 12.5C29 13.340812 28.340812 14 27.5 14L26 14L26 11 z M 26 16L27.5 16L28.494141 16C29.337678 16 30 16.662322 30 17.505859C30 18.349397 29.337678 19.011719 28.494141 19.011719L26 19.011719L26 16 z" fill="#18D26E" />
</svg>