<svg xmlns="http://www.w3.org/2000/svg" viewBox="0 0 32 32">
  <path d="M0 7L0 25L32 25L32 7L0 7 z M 2 9L30 9L30 23L2 23L2 9 z M 10.5 12C9.121094 12 8 13.121094 8 14.5C8 15.878906 9.121094 17 10.5 17C10.777344 17 11 17.226563 11 17.5C11 17.6875 10.933594 18 10.5 18C10 18 10 17.917969 10 17.617188L8 17.617188C8 19.089844 8.957031 20 10.5 20C11.925781 20 13 18.925781 13 17.5C13 16.121094 11.878906 15 10.5 15C10.222656 15 10 14.773438 10 14.5C10 14.226563 10.222656 14 10.5 14C10.949219 14 11 14.285156 11 14.40625L13 14.40625C13 13.238281 12.125 12 10.5 12 z M 16.5 12C15.121094 12 14 13.121094 14 14.5L14 17.5C14 18.878906 15.121094 20 16.5 20L17.5 20L18 21L20 21L19 19L19 14.5C19 13.121094 17.878906 12 16.5 12 z M 21 12L21 20L25 20L25 18L23 18L23 12L21 12 z M 16.5 14C16.777344 14 17 14.226563 17 14.5L17 17L16 17L16.5 18C16.222656 18 16 17.773438 16 17.5L16 17L16 14.5C16 14.226563 16.222656 14 16.5 14 z" fill="#18D26E" />
</svg>